Coordinates
version=1
nRows=11
nColumns=40
inDegrees=yes

Units are S.I. units (second, meters, Newtons, ...)
If the header above contains a line with 'inDegrees', this indicates whether rotational values are in degrees (yes) or radians (no).

endheader
time	pelvis_tilt	pelvis_list	pelvis_rotation	pelvis_tx	pelvis_ty	pelvis_tz	hip_flexion_r	hip_adduction_r	hip_rotation_r	knee_angle_r	knee_angle_r_beta	ankle_angle_r	subtalar_angle_r	mtp_angle_r	hip_flexion_l	hip_adduction_l	hip_rotation_l	knee_angle_l	knee_angle_l_beta	ankle_angle_l	subtalar_angle_l	mtp_angle_l	lumbar_extension	lumbar_bending	lumbar_rotation	arm_flex_r	arm_add_r	arm_rot_r	elbow_flex_r	pro_sup_r	wrist_flex_r	wrist_dev_r	arm_flex_l	arm_add_l	arm_rot_l	elbow_flex_l	pro_sup_l	wrist_flex_l	wrist_dev_l
      2.20000000	    -34.83134455	      0.81790697	      2.23331874	     -0.45867606	      0.59618715	     -0.93357717	    101.42090354	    -18.30209798	     10.21038850	    104.80079456	      1.82911892	     38.40728613	      0.00000000	      0.00000000	    105.12204756	    -12.82565104	      5.62561919	    103.46909425	      1.80587637	     33.86334954	      0.00000000	      0.00000000	    -34.12019671	     -1.10863184	      2.32751603	    -37.36932797	    -53.50176745	     20.79073190	    106.23386412	     88.12629978	      0.00000000	      0.00000000	      6.53918278	    -66.21886574	     65.48713969	    110.04041936	     88.08717350	      0.00000000	      0.00000000
      2.20500000	    -34.32335828	      0.79611888	      1.81282349	     -0.45707397	      0.59723956	     -0.93220167	    100.69058135	    -17.84951702	      9.97284288	    104.83543596	      1.82972353	     38.58349062	      0.00000000	      0.00000000	    104.52557119	    -13.46026953	      5.70618215	    103.61725976	      1.80846234	     34.01085964	      0.00000000	      0.00000000	    -34.72257892	     -1.36014644	      1.94907234	    -35.66865661	    -54.03591187	     22.40683751	    106.06623543	     88.13651476	      0.00000000	      0.00000000	      3.35481949	    -66.32106809	     62.21537957	    110.08492127	     88.10375493	      0.00000000	      0.00000000
      2.21000000	    -34.13673034	      0.96406847	      0.95406985	     -0.45601823	      0.59763914	     -0.92991582	    100.40178051	    -16.81586070	      9.92708687	    104.76953239	      1.82857330	     38.79971814	      0.00000000	      0.00000000	    104.25727742	    -14.57484914	      5.74007457	    103.80118281	      1.81167241	     34.25737791	      0.00000000	      0.00000000	    -34.92672924	     -2.08940570	      2.47033076	    -35.28295689	    -53.86379122	     22.77953636	    105.83085391	     88.13195128	      0.00000000	      0.00000000	      2.73262962	    -66.37669347	     61.46852782	    109.99914885	     88.08117454	      0.00000000	      0.00000000
      2.21500000	    -34.02821770	      0.89167828	      0.91582195	     -0.45571943	      0.59788727	     -0.92972497	    100.23029615	    -16.77259553	      9.82843205	    104.77823006	      1.82872510	     38.71489902	      0.00000000	      0.00000000	    104.16295123	    -14.63420442	      5.82868371	    103.82596804	      1.81210499	     34.18475800	      0.00000000	      0.00000000	    -35.04134715	     -2.07177631	      3.44207664	    -37.15158567	    -53.06259302	     20.81695033	    105.97083341	     88.13871198	      0.00000000	      0.00000000	      6.84135626	    -66.30665704	     65.66204596	    109.86325762	     88.10031710	      0.00000000	      0.00000000
      2.22000000	    -34.08927282	      0.92956236	      0.85118158	     -0.45565213	      0.59783447	     -0.92948787	    100.28966178	    -16.67262117	      9.85315241	    104.76333784	      1.82846518	     38.74471102	      0.00000000	      0.00000000	    104.20390480	    -14.73282310	      5.79779727	    103.82428018	      1.81207553	     34.22548561	      0.00000000	      0.00000000	    -34.98607744	     -2.14832404	      2.50375739	    -35.06000232	    -53.97022209	     23.03151484	    105.88574411	     88.13126869	      0.00000000	      0.00000000	      2.64036064	    -66.42228897	     61.43295530	    110.07297490	     88.10374885	      0.00000000	      0.00000000
      2.22500000	    -34.11351396	      0.91602195	      0.85131404	     -0.45565244	      0.59780857	     -0.92944350	    100.31106569	    -16.65567883	      9.84897399	    104.76992547	      1.82858016	     38.70296804	      0.00000000	      0.00000000	    104.23723837	    -14.73042165	      5.81970257	    103.82309466	      1.81205484	     34.21065515	      0.00000000	      0.00000000	    -34.95894535	     -2.15901800	      3.46324425	    -37.11499687	    -53.06959820	     20.86029633	    105.98038759	     88.14268677	      0.00000000	      0.00000000	      6.79991623	    -66.33853735	     65.69417373	    109.88910794	     88.10165849	      0.00000000	      0.00000000
      2.23000000	    -34.12793569	      0.91879190	      0.85370164	     -0.45556231	      0.59790104	     -0.92935062	    100.30610254	    -16.63364434	      9.86040490	    104.75962896	      1.82840045	     38.71315954	      0.00000000	      0.00000000	    104.22086788	    -14.74221390	      5.80396035	    103.78420118	      1.81137602	     34.21518507	      0.00000000	      0.00000000	    -34.94601251	     -2.17456062	      3.28188736	    -36.69075090	    -53.26943330	     21.33895335	    105.96854217	     88.13976824	      0.00000000	      0.00000000	      6.03359662	    -66.38700407	     64.93519406	    109.94555593	     88.09824171	      0.00000000	      0.00000000
      2.23500000	    -34.23705492	      0.93307645	      0.82278716	     -0.45563742	      0.59780666	     -0.92921332	    100.42115500	    -16.56911851	      9.88245526	    104.73397311	      1.82795267	     38.64919294	      0.00000000	      0.00000000	    104.33513629	    -14.76530124	      5.82101067	    103.78294662	      1.81135413	     34.17232041	      0.00000000	      0.00000000	    -34.81893430	     -2.22081054	      3.38013459	    -36.79049355	    -53.20836279	     21.25993722	    105.95648048	     88.13392793	      0.00000000	      0.00000000	      6.49991390	    -66.38554090	     65.43493461	    109.90095917	     88.09484051	      0.00000000	      0.00000000
      2.24000000	    -34.19694312	      0.94522368	      0.80988382	     -0.45545344	      0.59800037	     -0.92909631	    100.34627860	    -16.55069826	      9.86507181	    104.73820797	      1.82802658	     38.66658655	      0.00000000	      0.00000000	    104.25557576	    -14.79859044	      5.80285700	    103.76643004	      1.81106586	     34.20721926	      0.00000000	      0.00000000	    -34.90731790	     -2.23453863	      2.97218224	    -36.06854622	    -53.56239558	     21.94579891	    105.99722606	     88.14658846	      0.00000000	      0.00000000	      4.38632821	    -66.41042961	     63.22135561	    110.01525290	     88.10837128	      0.00000000	      0.00000000
      2.24500000	    -34.25966976	      1.01847710	      0.82300900	     -0.45541263	      0.59800978	     -0.92910653	    100.42866891	    -16.55267576	      9.95892560	    104.71690700	      1.82765481	     38.83274068	      0.00000000	      0.00000000	    104.26686909	    -14.78851373	      5.71267248	    103.74883810	      1.81075882	     34.28551640	      0.00000000	      0.00000000	    -34.88167964	     -2.28788521	      2.49451895	    -35.30828592	    -53.85625881	     22.66934914	    105.92305216	     88.13179263	      0.00000000	      0.00000000	      2.09166212	    -66.37848384	     60.82193522	    110.04107891	     88.06775423	      0.00000000	      0.00000000
      2.25000000	    -34.26562777	      0.94387163	      0.89834528	     -0.45547824	      0.59806819	     -0.92913172	    100.39518046	    -16.62473353	      9.88231002	    104.71614555	      1.82764152	     38.82870902	      0.00000000	      0.00000000	    104.29837005	    -14.69773869	      5.78803388	    103.71840438	      1.81022765	     34.17692084	      0.00000000	      0.00000000	    -34.85836573	     -2.17718460	      1.91436768	    -33.91367444	    -54.53543498	     24.23279042	    105.94255702	     88.13165221	      0.00000000	      0.00000000	      0.07405759	    -66.46400734	     58.91602568	    110.22589591	     88.08969986	      0.00000000	      0.00000000
